<svg width="40" height="40" viewBox="0 0 40 40" fill="none" xmlns="http://www.w3.org/2000/svg">
<rect width="40" height="40" rx="20" fill="#FF2121" fill-opacity="0.5"/>
<path d="M17.96 7.12998C16.61 7.51998 14.72 9.52998 14.33 10.91C13.91 12.35 13.91 16.82 14.3 18.17C14.45 18.74 14.99 19.73 15.5 20.33C16.19 21.23 16.4 21.77 16.4 22.82V24.17L13.61 25.49C9.71 27.35 8 29.24 8 31.7V32.6H20H32V31.7C32 29.24 30.26 27.32 26.39 25.52L23.6 24.23V22.85C23.6 21.77 23.81 21.2 24.47 20.36C25.76 18.68 26.09 17.33 25.94 13.88C25.82 10.4 25.25 9.10998 23.3 7.81998C22.01 6.94998 19.55 6.64998 17.96 7.12998Z" fill="white"/>
</svg>
